<?xml version="1.0" encoding="utf-8"?>
<!-- Generator: Adobe Illustrator 26.1.0, SVG Export Plug-In . SVG Version: 6.00 Build 0)  -->
<svg version="1.1" id="Слой_1" xmlns="http://www.w3.org/2000/svg" xmlns:xlink="http://www.w3.org/1999/xlink" x="0px" y="0px"
	 viewBox="0 0 256 256" style="enable-background:new 0 0 256 256;" xml:space="preserve">
<style type="text/css">
	.st0{fill:#51C4F2;}
	.st1{fill:#0F9373;}
	.st2{fill:#FFFFFF;}
	.st3{fill:#C6C6C6;}
	.st4{fill:none;}
</style>
<g>
	<path class="st0" d="M253.39,147.85c1-6.42,1.52-13,1.52-19.7c0-70.12-56.84-126.96-126.96-126.96S1,58.03,1,128.15
		c0,7.29,0.62,14.42,1.8,21.37c33.86-15.97,78.36-25.68,127.11-25.68C176.94,123.85,220.01,132.87,253.39,147.85z"/>
	<path class="st1" d="M127.96,255.11c63.41,0,115.97-46.5,125.43-107.26c-33.38-14.98-76.45-24-123.48-24
		c-48.75,0-93.25,9.7-127.11,25.68C12.96,209.46,65.13,255.11,127.96,255.11z"/>
	<circle class="st2" cx="74.52" cy="43.03" r="11.47"/>
	<circle class="st2" cx="187.4" cy="43.03" r="11.47"/>
	<circle class="st2" cx="106.91" cy="119.09" r="6.97"/>
	<circle class="st2" cx="148.55" cy="119.38" r="6.97"/>
	<path class="st2" d="M106.51,111.18l-0.6,0.17c-1.58,0.43-3.23-0.51-3.66-2.09l-9.78-32.33c0,0-1.37-3.74-4.99-1.76
		c-1.95,1.07-0.59,5.08-0.59,5.08l17.41,53.96c0,0-19.43,0.91-21.19,1.04l-0.09,43.33c0,1.85-1.51,3.35-3.35,3.35h-0.76
		c-1.85,0-3.35-1.51-3.35-3.35l0.2-43.46c-1.63-0.07-5.8,0.13-7.3,0.13l-0.09,43.72c0,1.85-1.51,3.35-3.35,3.35h-0.76
		c-1.85,0-3.35-1.51-3.35-3.35l0.07-43.72c0-0.51-18.45-0.26-18.45-0.26s17.7-48.93,18.58-51.33c1.08-2.93,1.37-6.46-0.39-7.82
		c-1.14-0.89-3.42-1.37-4.5,1.56c-3.81,10.39-13.09,34.76-13.09,34.76c-0.58,1.62-2.38,2.49-4.01,1.9l-0.27-0.09
		c-1.63-0.59-2.49-2.39-1.91-4.02l14.14-39.57c0-0.01,0.01-0.03,0.01-0.05l0.38-1.06c0.03-0.08,0.06-0.17,0.09-0.24
		c0.03-0.08,0.07-0.15,0.11-0.23c3.04-6.17,10.22-6.74,10.22-6.74s18.19-0.77,23.66-0.39c2.51,0.18,4.96,0.96,7.09,2.31
		c1.47,0.92,2.79,2.09,3.89,3.43c0.6,0.73,1.14,1.55,1.57,2.4c0.44,0.89,0.69,1.8,0.95,2.74c0.31,1.14,0.62,2.28,0.94,3.42
		c0.41,1.51,0.83,3.03,1.24,4.54c0.48,1.74,0.95,3.49,1.43,5.23c0.5,1.83,1,3.66,1.5,5.49c0.48,1.77,0.97,3.54,1.45,5.31
		c0.43,1.57,0.86,3.13,1.29,4.7c0.33,1.22,0.67,2.44,1,3.66c0.2,0.73,0.4,1.45,0.6,2.18c0.04,0.14,0.08,0.28,0.12,0.42
		C109.03,109.09,108.09,110.75,106.51,111.18z"/>
	<path class="st2" d="M166.14,156.85l-0.32,0.09c-0.85,0.23-1.75-0.27-1.98-1.13l-5.29-17.5c0,0-0.74-2.03-2.7-0.95
		c-1.06,0.58-0.32,2.75-0.32,2.75l9.42,29.21c0,0-10.51,0.49-11.47,0.56l-0.05,23.45c0,1-0.82,1.82-1.82,1.82h-0.41
		c-1,0-1.82-0.82-1.82-1.82l0.11-23.52c-0.88-0.04-3.14,0.07-3.95,0.07l-0.05,23.66c0,1-0.82,1.82-1.82,1.82h-0.41
		c-1,0-1.82-0.82-1.82-1.82l0.04-23.66c0-0.27-9.98-0.14-9.98-0.14s9.58-26.48,10.05-27.78c0.58-1.59,0.74-3.5-0.21-4.23
		c-0.61-0.48-1.85-0.74-2.43,0.85c-2.06,5.62-7.08,18.81-7.08,18.81c-0.31,0.88-1.29,1.35-2.17,1.03l-0.15-0.05
		c-0.88-0.32-1.35-1.3-1.03-2.18l7.65-21.42c0-0.01,0.01-0.02,0.01-0.03l0.21-0.58c0.02-0.04,0.03-0.09,0.05-0.13
		c0.02-0.04,0.04-0.08,0.06-0.12c1.65-3.34,5.53-3.65,5.53-3.65s9.85-0.42,12.81-0.21c4.44,0.32,6.45,3.81,6.45,3.81l-0.05,0.08
		c0.28,0.21,0.5,0.5,0.6,0.87l5.48,20.05C167.5,155.72,166.99,156.61,166.14,156.85z"/>
	<path class="st3" d="M51.54,69.03c-0.03,0.07-0.06,0.15-0.09,0.24l-0.38,1.06c0.09-0.37,0.23-0.77,0.42-1.2
		C51.51,69.1,51.52,69.06,51.54,69.03z"/>
	<path class="st2" d="M214.44,74.45l0.13,40.89c0,1.05-0.43,2.01-1.11,2.69c-0.7,0.7-1.65,1.12-2.7,1.12
		c-2.09,0-3.81-1.71-3.81-3.82l-0.59-35.87c-4.37-1.7-5.93,6.38-5.93,6.38c-0.07,2.28-0.91,90.31-0.91,90.31
		c0,2.73-2.24,4.97-4.97,4.97h-0.61c-2.73,0-4.97-2.24-4.97-4.97l0-50.65c0,0,0.39-4.75-3.81-4.89c-3.03-0.1-4.11,2.35-4.2,4.97
		v51.35c0,2.73-2.24,4.97-4.97,4.97h-0.61c-2.73,0-4.97-2.24-4.97-4.97V88.55c-0.55-7.24-3.15-7.59-4.7-7.12v33.72
		c0,1.04-0.42,2-1.11,2.69c-0.69,0.68-1.64,1.11-2.69,1.11c-2.11,0-3.82-1.71-3.82-3.81c0,0-0.09-39.06,0.2-39.6l0.2-4.69
		c0.98-8.21,8.31-10,12.32-10.36c7.94-0.71,24.44-0.2,31.87,0c7.04,0.19,11.16,5.85,11.54,9.58
		C214.31,71.38,214.44,73.56,214.44,74.45z"/>
	<path class="st2" d="M121.11,135.74l0.07,22.36c0,0.58-0.24,1.1-0.61,1.47c-0.38,0.38-0.9,0.62-1.48,0.62
		c-1.15,0-2.08-0.94-2.08-2.09l-0.32-19.61c-2.39-0.93-3.24,3.49-3.24,3.49c-0.04,1.25-0.5,49.38-0.5,49.38
		c0,1.5-1.22,2.72-2.72,2.72h-0.33c-1.5,0-2.72-1.22-2.72-2.72l0-27.7c0,0,0.21-2.6-2.08-2.67c-1.66-0.06-2.25,1.28-2.3,2.72v28.08
		c0,1.5-1.22,2.72-2.72,2.72h-0.33c-1.5,0-2.72-1.22-2.72-2.72v-48.34c-0.3-3.96-1.72-4.15-2.57-3.89V158
		c0,0.57-0.23,1.09-0.61,1.47c-0.38,0.37-0.9,0.61-1.47,0.61c-1.15,0-2.09-0.94-2.09-2.08c0,0-0.05-21.36,0.11-21.65l0.11-2.57
		c0.54-4.49,4.54-5.47,6.74-5.67c4.34-0.39,13.36-0.11,17.42,0c3.85,0.1,6.1,3.2,6.31,5.24
		C121.04,134.07,121.11,135.26,121.11,135.74z"/>
	<rect x="65.91" y="198.01" class="st4" width="7.56" height="0"/>
</g>
</svg>
